<?xml version="1.0" encoding="UTF-8"?>
<svg xmlns="http://www.w3.org/2000/svg" xmlns:xlink="http://www.w3.org/1999/xlink" version="1.1" viewBox="0 0 2500 2000">
  <!-- Generator: Adobe Illustrator 29.2.1, SVG Export Plug-In . SVG Version: 2.1.0 Build 116)  -->
  <defs>
    <style>
      .st0 {
        isolation: isolate;
      }

      .st1 {
        fill: #fff;
      }

      .st2 {
        fill: url(#linear-gradient);
        mix-blend-mode: multiply;
      }

      .st3 {
        fill: #6694f6;
      }
    </style>
    <linearGradient id="linear-gradient" x1="1249.04" y1="367.61" x2="1249.04" y2="1726.11" gradientUnits="userSpaceOnUse">
      <stop offset=".32" stop-color="#fff" stop-opacity="0"/>
      <stop offset="1" stop-color="#000" stop-opacity=".6"/>
    </linearGradient>
  </defs>
  <g class="st0">
    <g id="Layer_1">
      <g>
        <circle class="st3" cx="1250" cy="1000" r="656.37"/>
        <g>
          <path class="st1" d="M1731.9,748.15c-1.22-5.18-5.29-9.86-10.16-12.33-6.96-3.5-15.11-3.58-22.94-3.58-41.47.08-82.99.11-124.46.15-23.93.08-47.83.08-71.76.11-38.28.04-78,.38-112.59,16.74-43.76,20.7-73.32,65.64-81.69,113.31-5.67,32.27-2.36,65.6,7,96.88,8.79,29.41,23.9,51.25,9.28,82.15-6.85,14.38-19.56,25.27-33.22,33.48-17.73,10.65-38.89,17.69-59.13,13.32-15.64-3.35-29.22-13.2-40.22-24.81-19.56-20.62-31.85-46.61-44.29-71.84-13.32-26.98-28.54-52.89-43.07-79.22-21.92-39.72-43.8-79.45-65.71-119.17-.08-.15-.15-.34-.23-.49-9.63-17.31-20.97-29.95-32.53-39.23-12.44-9.97-25.15-15.98-36.22-19.6-3.96-1.26-7.69-2.25-11.15-3.01-13.28-2.89-22.3-2.32-22.3-2.32l-12.75.34-141.13,3.81c-5.36.95-10.27,3.92-13.09,8.6-9.44,15.71,21.31,23.17,21.31,23.17,43.95,16.74,73.51,63.16,80.97,75.87.99,1.75,36.19,65.56,52.66,95.43,35.77,64.91,71.57,129.79,107.34,194.7,50.99,92.5,101.9,185.08,152.74,277.66,9.93,18.11,20.66,37.06,38.39,47.68,19.71,11.8,46.46,10.5,64.91-3.16,13.43-9.93,21.92-25.04,30.02-39.65,103.8-187.4,207.6-374.84,311.41-562.24,18.72-33.83,41.02-70.58,78.12-81.39,9.51-2.78,21.38-5.14,24.31-14.61.72-2.24.72-4.57.19-6.77ZM1450.7,802.38c.61-.19,1.22-.42,1.83-.61,3.65-1.14,7.57-1.75,11.61-1.75s8.29.65,12.1,1.9c11.45,3.65,20.62,12.4,24.81,23.59,0,.04.04.04.04.08,1.6,4.26,2.47,8.9,2.47,13.74,0,19.22-13.74,35.2-31.96,38.66h-.08c-2.4.46-4.87.68-7.38.68-4.07,0-7.99-.61-11.68-1.79-15.98-4.95-27.62-19.9-27.62-37.56s10.81-31.47,25.87-36.95Z"/>
          <path class="st2" d="M1502.57,732.52c-38.28.04-78,.38-112.59,16.74-43.76,20.7-73.32,65.64-81.69,113.31-5.67,32.27-2.36,65.6,7,96.88,8.79,29.41,23.9,51.25,9.28,82.15-6.85,14.38-19.56,25.27-33.22,33.48-17.73,10.65-38.89,17.69-59.13,13.32-15.64-3.35-29.22-13.2-40.22-24.81-19.56-20.62-31.85-46.61-44.29-71.84-13.32-26.98-28.54-52.89-43.07-79.22-21.92-39.72-43.8-79.45-65.71-119.17-.08-.15-.15-.34-.23-.49-9.63-17.31-20.97-29.95-32.53-39.23-12.44-9.97-25.15-15.98-36.22-19.6-3.96-1.26-7.69-2.25-11.15-3.01-13.28-2.89-22.3-2.32-22.3-2.32l-12.75.34,326.25,565.13,324.34-561.78c-23.93.08-47.83.08-71.76.11ZM1471.59,877.98h-.08c-2.4.46-4.87.68-7.38.68-4.07,0-7.99-.61-11.68-1.79-15.98-4.95-27.62-19.9-27.62-37.56s10.81-31.47,25.87-36.95c.61-.19,1.22-.42,1.83-.61,3.65-1.14,7.57-1.75,11.61-1.75s8.29.65,12.1,1.9c11.45,3.65,20.62,12.4,24.81,23.59,0,.04.04.04.04.08,1.6,4.26,2.47,8.9,2.47,13.74,0,19.22-13.74,35.2-31.96,38.66Z"/>
        </g>
      </g>
    </g>
  </g>
</svg>